<?xml version="1.0" encoding="utf-8"?>
<!-- Generator: Adobe Illustrator 19.2.0, SVG Export Plug-In . SVG Version: 6.00 Build 0)  -->
<svg version="1.1" id="Layer_1" xmlns="http://www.w3.org/2000/svg" xmlns:xlink="http://www.w3.org/1999/xlink" x="0px" y="0px"
	 viewBox="0 0 491.6 68.6" style="enable-background:new 0 0 491.6 68.6;" xml:space="preserve">
<style type="text/css">
	.st0{fill:none;stroke:#FFFFFF;stroke-width:2;stroke-miterlimit:10;}
</style>
<g>
	<g>
		<path class="st0" d="M12.1,3c0.1-0.6,0.5-0.9,1-0.9h39.7c0.6,0,0.9,0.4,0.8,0.9l-1.7,9.7c-0.1,0.6-0.6,0.9-1,0.9H24.1
			c-0.4,0-0.6,0.2-0.7,0.6L21,27.8c-0.1,0.4,0.1,0.6,0.5,0.6h22.2c0.6,0,0.9,0.4,0.8,0.9l-1.7,9.5c-0.1,0.6-0.6,0.9-1.1,0.9H19.4
			c-0.4,0-0.6,0.2-0.7,0.6l-2.5,14.1c-0.1,0.4,0.1,0.6,0.5,0.6h26.8c0.6,0,0.9,0.4,0.8,0.9l-1.8,9.7c-0.1,0.6-0.5,0.9-1,0.9H1.9
			c-0.6,0-0.9-0.4-0.9-0.9L12.1,3z"/>
		<path class="st0" d="M63.5,3C63.6,2.4,64,2,64.6,2h10.8c0.8,0,1.2,0.3,1.4,0.9l14.7,41.5h0.4L99.3,3c0.1-0.6,0.5-0.9,1-0.9h10.2
			c0.6,0,0.9,0.4,0.9,0.9l-11.1,62.6c-0.1,0.6-0.5,0.9-1,0.9H88.4c-0.6,0-1-0.3-1.3-0.9L72.3,24.2h-0.5l-7.3,41.5
			c-0.1,0.6-0.5,0.9-0.9,0.9H53.3c-0.6,0-0.9-0.4-0.9-0.9L63.5,3z"/>
		<path class="st0" d="M126,66.6c-0.5,0-0.9-0.4-0.8-0.9l9-51.1c0.1-0.4-0.1-0.6-0.5-0.6H118c-0.6,0-0.9-0.4-0.9-0.9L119,3
			c0.1-0.6,0.5-0.9,1-0.9h46c0.6,0,0.9,0.4,0.9,0.9l-1.8,10c-0.1,0.6-0.5,0.9-1,0.9h-15.8c-0.4,0-0.6,0.2-0.7,0.6l-9,51.1
			c-0.1,0.6-0.5,0.9-1,0.9H126z"/>
		<path class="st0" d="M174.5,3c0.1-0.6,0.5-0.9,1-0.9h39.7c0.6,0,0.9,0.4,0.8,0.9l-1.7,9.7c-0.1,0.6-0.6,0.9-1,0.9h-26.8
			c-0.4,0-0.6,0.2-0.7,0.6l-2.4,13.6c-0.1,0.4,0.1,0.6,0.5,0.6h22.2c0.6,0,0.9,0.4,0.8,0.9l-1.7,9.5c-0.1,0.6-0.6,0.9-1.1,0.9h-22.2
			c-0.4,0-0.6,0.2-0.7,0.6l-2.5,14.1c-0.1,0.4,0.1,0.6,0.5,0.6h26.8c0.6,0,0.9,0.4,0.8,0.9l-1.8,9.7c-0.1,0.6-0.5,0.9-1,0.9h-39.6
			c-0.6,0-0.9-0.4-0.9-0.9L174.5,3z"/>
		<path class="st0" d="M250,66.6c-0.8,0-1-0.3-1.2-0.9l-6.5-23.9h-9.3c-0.4,0-0.7,0.2-0.7,0.6l-4.2,23.3c-0.1,0.6-0.5,0.9-0.9,0.9
			h-11.5c-0.6,0-0.9-0.4-0.9-0.9L225.9,3c0.1-0.6,0.5-0.9,1-0.9h24.5c11.5,0,18.1,6.5,18.1,15.9c0,10.5-6.1,18.5-14.9,21.9l7.4,25.5
			c0.3,0.6-0.1,1.1-0.8,1.1H250z M256.1,20c0-4-2.8-6.4-7.3-6.4h-10.9c-0.4,0-0.6,0.2-0.7,0.6l-2.8,15.6c-0.1,0.4,0.1,0.6,0.5,0.6
			h10.9C251.4,30.2,256.1,26.5,256.1,20z"/>
		<path class="st0" d="M280.4,15.9C285.5,5.6,293.6,1,304.9,1c10.2,0,16.9,5.4,19,14.3c0.1,0.6-0.1,0.9-0.7,1.2l-10.1,4.2
			c-0.6,0.3-1,0-1.2-0.6c-1-4.2-3.3-7.3-8.5-7.3c-5.1,0-8.6,2.8-10.8,7.6c-2.3,4.6-5.1,21.5-5.1,26.3c0,5.5,3,9,8.5,9
			c4.7,0,8.4-3.2,10.9-7.4c0.4-0.6,0.9-0.8,1.4-0.5l9,4.8c0.5,0.2,0.6,0.7,0.3,1.2c-5.9,9.6-13.3,13.7-23.6,13.7
			c-11.9,0-20-6.8-20-19.7C273.9,42.1,277,22.9,280.4,15.9z"/>
		<path class="st0" d="M335.5,3c0.1-0.6,0.5-0.9,1-0.9h39.7c0.6,0,0.9,0.4,0.8,0.9l-1.7,9.7c-0.1,0.6-0.6,0.9-1,0.9h-26.8
			c-0.4,0-0.6,0.2-0.7,0.6l-2.4,13.6c-0.1,0.4,0.1,0.6,0.5,0.6h22.2c0.6,0,0.9,0.4,0.8,0.9l-1.7,9.5c-0.1,0.6-0.6,0.9-1.1,0.9h-22.2
			c-0.4,0-0.6,0.2-0.7,0.6l-2.5,14.1c-0.1,0.4,0.1,0.6,0.5,0.6h26.8c0.6,0,0.9,0.4,0.8,0.9l-1.8,9.7c-0.1,0.6-0.5,0.9-1,0.9h-39.6
			c-0.6,0-0.9-0.4-0.9-0.9L335.5,3z"/>
		<path class="st0" d="M376.7,66.6c-0.5,0-0.9-0.4-0.8-0.9L387,3c0.1-0.6,0.5-0.9,0.9-0.9h24c12.1,0,18.5,6.4,18.5,16.3
			c0,16.1-10.8,24.9-25.6,24.9h-11.1c-0.4,0-0.7,0.2-0.7,0.6l-3.9,21.8c-0.1,0.6-0.5,0.9-1,0.9H376.7z M417,20.5
			c0-4.3-2.8-6.9-7.8-6.9H399c-0.4,0-0.6,0.2-0.7,0.6l-3,16.9c0,0.4,0.1,0.6,0.5,0.6H406C412.4,31.7,417,27.4,417,20.5z"/>
		<path class="st0" d="M444.7,66.6c-0.5,0-0.9-0.4-0.8-0.9l9-51.1c0.1-0.4-0.1-0.6-0.5-0.6h-15.8c-0.6,0-0.9-0.4-0.9-0.9l1.8-10
			c0.1-0.6,0.5-0.9,1-0.9h46c0.6,0,0.9,0.4,0.9,0.9l-1.8,10c-0.1,0.6-0.5,0.9-1,0.9h-15.8c-0.4,0-0.6,0.2-0.7,0.6l-9,51.1
			c-0.1,0.6-0.5,0.9-1,0.9H444.7z"/>
	</g>
	<g>
		<path class="st0" d="M17.1,3c0.1-0.6,0.5-0.9,1-0.9h39.7c0.6,0,0.9,0.4,0.8,0.9l-1.7,9.7c-0.1,0.6-0.6,0.9-1,0.9H29.1
			c-0.4,0-0.6,0.2-0.7,0.6L26,27.8c-0.1,0.4,0.1,0.6,0.5,0.6h22.2c0.6,0,0.9,0.4,0.8,0.9l-1.7,9.5c-0.1,0.6-0.6,0.9-1.1,0.9H24.4
			c-0.4,0-0.6,0.2-0.7,0.6l-2.5,14.1c-0.1,0.4,0.1,0.6,0.5,0.6h26.8c0.6,0,0.9,0.4,0.8,0.9l-1.8,9.7c-0.1,0.6-0.5,0.9-1,0.9H6.9
			c-0.6,0-0.9-0.4-0.9-0.9L17.1,3z"/>
		<path class="st0" d="M68.5,3C68.6,2.4,69,2,69.6,2h10.8c0.8,0,1.2,0.3,1.4,0.9l14.7,41.5h0.4L104.3,3c0.1-0.6,0.5-0.9,1-0.9h10.2
			c0.6,0,0.9,0.4,0.9,0.9l-11.1,62.6c-0.1,0.6-0.5,0.9-1,0.9H93.4c-0.6,0-1-0.3-1.3-0.9L77.3,24.2h-0.5l-7.3,41.5
			c-0.1,0.6-0.5,0.9-0.9,0.9H58.3c-0.6,0-0.9-0.4-0.9-0.9L68.5,3z"/>
		<path class="st0" d="M131,66.6c-0.5,0-0.9-0.4-0.8-0.9l9-51.1c0.1-0.4-0.1-0.6-0.5-0.6H123c-0.6,0-0.9-0.4-0.9-0.9L124,3
			c0.1-0.6,0.5-0.9,1-0.9h46c0.6,0,0.9,0.4,0.9,0.9l-1.8,10c-0.1,0.6-0.5,0.9-1,0.9h-15.8c-0.4,0-0.6,0.2-0.7,0.6l-9,51.1
			c-0.1,0.6-0.5,0.9-1,0.9H131z"/>
		<path class="st0" d="M179.5,3c0.1-0.6,0.5-0.9,1-0.9h39.7c0.6,0,0.9,0.4,0.8,0.9l-1.7,9.7c-0.1,0.6-0.6,0.9-1,0.9h-26.8
			c-0.4,0-0.6,0.2-0.7,0.6l-2.4,13.6c-0.1,0.4,0.1,0.6,0.5,0.6h22.2c0.6,0,0.9,0.4,0.8,0.9l-1.7,9.5c-0.1,0.6-0.6,0.9-1.1,0.9h-22.2
			c-0.4,0-0.6,0.2-0.7,0.6l-2.5,14.1c-0.1,0.4,0.1,0.6,0.5,0.6h26.8c0.6,0,0.9,0.4,0.8,0.9l-1.8,9.7c-0.1,0.6-0.5,0.9-1,0.9h-39.6
			c-0.6,0-0.9-0.4-0.9-0.9L179.5,3z"/>
		<path class="st0" d="M255,66.6c-0.8,0-1-0.3-1.2-0.9l-6.5-23.9h-9.3c-0.4,0-0.7,0.2-0.7,0.6l-4.2,23.3c-0.1,0.6-0.5,0.9-0.9,0.9
			h-11.5c-0.6,0-0.9-0.4-0.9-0.9L230.9,3c0.1-0.6,0.5-0.9,1-0.9h24.5c11.5,0,18.1,6.5,18.1,15.9c0,10.5-6.1,18.5-14.9,21.9l7.4,25.5
			c0.3,0.6-0.1,1.1-0.8,1.1H255z M261.1,20c0-4-2.8-6.4-7.3-6.4h-10.9c-0.4,0-0.6,0.2-0.7,0.6l-2.8,15.6c-0.1,0.4,0.1,0.6,0.5,0.6
			h10.9C256.4,30.2,261.1,26.5,261.1,20z"/>
		<path class="st0" d="M285.4,15.9C290.5,5.6,298.6,1,309.9,1c10.2,0,16.9,5.4,19,14.3c0.1,0.6-0.1,0.9-0.7,1.2l-10.1,4.2
			c-0.6,0.3-1,0-1.2-0.6c-1-4.2-3.3-7.3-8.5-7.3c-5.1,0-8.6,2.8-10.8,7.6c-2.3,4.6-5.1,21.5-5.1,26.3c0,5.5,3,9,8.5,9
			c4.7,0,8.4-3.2,10.9-7.4c0.4-0.6,0.9-0.8,1.4-0.5l9,4.8c0.5,0.2,0.6,0.7,0.3,1.2c-5.9,9.6-13.3,13.7-23.6,13.7
			c-11.9,0-20-6.8-20-19.7C278.9,42.1,282,22.9,285.4,15.9z"/>
		<path class="st0" d="M340.5,3c0.1-0.6,0.5-0.9,1-0.9h39.7c0.6,0,0.9,0.4,0.8,0.9l-1.7,9.7c-0.1,0.6-0.6,0.9-1,0.9h-26.8
			c-0.4,0-0.6,0.2-0.7,0.6l-2.4,13.6c-0.1,0.4,0.1,0.6,0.5,0.6h22.2c0.6,0,0.9,0.4,0.8,0.9l-1.7,9.5c-0.1,0.6-0.6,0.9-1.1,0.9h-22.2
			c-0.4,0-0.6,0.2-0.7,0.6l-2.5,14.1c-0.1,0.4,0.1,0.6,0.5,0.6h26.8c0.6,0,0.9,0.4,0.8,0.9l-1.8,9.7c-0.1,0.6-0.5,0.9-1,0.9h-39.6
			c-0.6,0-0.9-0.4-0.9-0.9L340.5,3z"/>
		<path class="st0" d="M381.7,66.6c-0.5,0-0.9-0.4-0.8-0.9L392,3c0.1-0.6,0.5-0.9,0.9-0.9h24c12.1,0,18.5,6.4,18.5,16.3
			c0,16.1-10.8,24.9-25.6,24.9h-11.1c-0.4,0-0.7,0.2-0.7,0.6l-3.9,21.8c-0.1,0.6-0.5,0.9-1,0.9H381.7z M422,20.5
			c0-4.3-2.8-6.9-7.8-6.9H404c-0.4,0-0.6,0.2-0.7,0.6l-3,16.9c0,0.4,0.1,0.6,0.5,0.6H411C417.4,31.7,422,27.4,422,20.5z"/>
		<path class="st0" d="M449.7,66.6c-0.5,0-0.9-0.4-0.8-0.9l9-51.1c0.1-0.4-0.1-0.6-0.5-0.6h-15.8c-0.6,0-0.9-0.4-0.9-0.9l1.8-10
			c0.1-0.6,0.5-0.9,1-0.9h46c0.6,0,0.9,0.4,0.9,0.9l-1.8,10c-0.1,0.6-0.5,0.9-1,0.9h-15.8c-0.4,0-0.6,0.2-0.7,0.6l-9,51.1
			c-0.1,0.6-0.5,0.9-1,0.9H449.7z"/>
	</g>
</g>
</svg>
