<?xml version="1.0" encoding="UTF-8"?>
<svg width="250px" height="36px" viewBox="0 0 250 36" version="1.1" xmlns="http://www.w3.org/2000/svg" xmlns:xlink="http://www.w3.org/1999/xlink">
    <!-- Generator: Sketch 44.1 (41455) - http://www.bohemiancoding.com/sketch -->
    <title>logo</title>
    <desc>Created with Sketch.</desc>
    <defs></defs>
    <g id="Page-1" stroke="none" stroke-width="1" fill="none" fill-rule="evenodd">
        <g id="logo" fill-rule="nonzero" fill="#FFFFFF">
            <g id="Group">
                <g id="Page-1">
                    <path d="M126.250279,7.21617273 L120.262546,7.21617273 L120.262546,16.2723273 L126.250279,16.2723273 C129.038119,16.2723273 130.865284,14.3935909 130.865284,11.7454909 C130.865284,9.09490909 129.038119,7.21617273 126.250279,7.21617273 L126.250279,7.21617273 Z M131.185509,35.5411636 L124.832814,21.8589 L120.262546,21.8589 L120.262546,35.5411636 L113.909851,35.5411636 L113.909851,1.24243636 L126.662333,1.24243636 C133.288161,1.24243636 137.217979,6.01249091 137.217979,11.7454909 C137.217979,16.5602182 134.430139,19.5483273 131.277338,20.7520091 L138.543615,35.5411636 L131.185509,35.5411636 Z" id="Fill-5"></path>
                    <path d="M154.68224,35.8285582 C151.209213,35.8285582 148.284807,34.5777218 145.906668,32.0710854 C144.491555,30.5795127 143.62271,28.8447218 143.255393,26.9188309 C142.890432,24.9904581 142.709128,22.1487764 142.709128,18.3913036 C142.709128,14.6338309 142.890432,11.7921491 143.255393,9.86625818 C143.62271,7.89073091 144.491555,6.20309455 145.906668,4.71152182 C148.284807,2.20736727 151.209213,0.954049091 154.68224,0.954049091 C160.943105,0.954049091 165.558111,4.80831273 166.655351,11.7921491 L160.213182,11.7921491 C159.525639,8.85367636 157.790304,6.92530364 154.729331,6.92530364 C152.991641,6.92530364 151.618912,7.50604909 150.660592,8.70973091 C149.334956,10.2037855 149.059469,11.7449945 149.059469,18.3913036 C149.059469,25.0376128 149.334956,26.5788219 150.660592,28.0728763 C151.618912,29.2765582 152.991641,29.8573036 154.729331,29.8573036 C157.790304,29.8573036 159.525639,27.9289309 160.213182,24.9904581 L166.655351,24.9904581 C165.558111,31.9742945 160.898368,35.8285582 154.68224,35.8285582" id="Fill-7"></path>
                    <polygon id="Fill-9" points="172.145322 35.5401708 172.145322 1.24392545 193.579193 1.24392545 193.579193 7.21518 178.498018 7.21518 178.498018 15.2612345 191.339974 15.2612345 191.339974 21.2324891 178.498018 21.2324891 178.498018 29.5664345 193.579193 29.5664345 193.579193 35.5401708"></polygon>
                    <path d="M212.094074,7.21617273 L206.153433,7.21617273 L206.153433,16.6098545 L212.094074,16.6098545 C214.973743,16.6098545 216.800908,14.7311182 216.800908,11.9365909 C216.800908,9.14206363 214.973743,7.21617273 212.094074,7.21617273 M212.414298,22.6307455 L206.153433,22.6307455 L206.153433,35.5411636 L199.800737,35.5411636 L199.800737,1.24243636 L212.414298,1.24243636 C219.131956,1.24243636 223.153604,6.10928182 223.153604,11.9365909 C223.153604,17.7639 219.131956,22.6307455 212.414298,22.6307455" id="Fill-11"></path>
                    <polygon id="Fill-13" points="240.936676 7.21617273 240.936676 35.5411636 234.58398 35.5411636 234.58398 7.21617273 226.083895 7.21617273 226.083895 1.24243636 249.43676 1.24243636 249.43676 7.21617273"></polygon>
                    <polygon id="Fill-1" points="0 1.24293273 0 35.54166 21.4338709 35.54166 21.4338709 29.5679236 6.35269511 29.5679236 6.35269511 21.2339782 19.1946518 21.2339782 19.1946518 15.2602419 6.35269511 15.2602419 6.35269511 7.21666909 21.4338709 7.21666909 21.4338709 1.24293273"></polygon>
                    <polygon id="Fill-2" points="46.2098527 1.24293273 46.2098527 22.24656 33.3208041 1.24293273 27.6556506 1.24293273 27.6556506 35.54166 34.0083457 35.54166 34.0083457 14.4908781 46.8950396 35.54166 52.5625479 35.54166 52.5625479 1.24293273"></polygon>
                    <polygon id="Fill-3" points="57.7315885 1.24293273 57.7315885 7.21666909 66.2340281 7.21666909 66.2340281 35.54166 72.5843686 35.54166 72.5843686 7.21666909 81.0868082 7.21666909 81.0868082 1.24293273"></polygon>
                    <polygon id="Fill-4" points="86.2551425 1.24293273 86.2551425 35.54166 107.691368 35.54166 107.691368 29.5679236 92.6078375 29.5679236 92.6078375 21.2339782 105.449794 21.2339782 105.449794 15.2602419 92.6078375 15.2602419 92.6078375 7.21666909 107.691368 7.21666909 107.691368 1.24293273"></polygon>
                </g>
            </g>
        </g>
    </g>
</svg>