<?xml version="1.0" encoding="UTF-8"?>
<svg width="207px" height="25px" viewBox="0 0 207 25" version="1.1" xmlns="http://www.w3.org/2000/svg" xmlns:xlink="http://www.w3.org/1999/xlink">
    <!-- Generator: Sketch 41.2 (35397) - http://www.bohemiancoding.com/sketch -->
    <title>Group 2</title>
    <desc>Created with Sketch.</desc>
    <defs>
        <linearGradient x1="0%" y1="0%" x2="101.257813%" y2="100%" id="linearGradient-1">
            <stop stop-color="#2C23AE" offset="0%"></stop>
            <stop stop-color="#53A0FE" offset="100%"></stop>
            <stop stop-color="#C900FF" offset="100%"></stop>
        </linearGradient>
    </defs>
    <g id="Page-1" stroke="none" stroke-width="1" fill="none" fill-rule="evenodd">
        <g id="Desktop-HD" transform="translate(-250.000000, -111.000000)">
            <g id="Group-2" transform="translate(250.000000, 111.000000)">
                <path d="M0,25 L24,25 L24,1 L0,1 L0,25 Z M5,20 L19,20 L19,6 L5,6 L5,20 Z" id="Page-1" fill="url(#linearGradient-1)"></path>
                <g id="Group" fill="#FFFFFF">
                    <g id="Page-1" transform="translate(31.000000, 0.000000)">
                        <path d="M88.8801966,5.01123106 L84.6648326,5.01123106 L84.6648326,11.3002273 L88.8801966,11.3002273 C90.8428356,11.3002273 92.1291599,9.99554924 92.1291599,8.15659091 C92.1291599,6.31590909 90.8428356,5.01123106 88.8801966,5.01123106 L88.8801966,5.01123106 Z M92.3545981,24.6813636 L87.8823008,15.1797917 L84.6648326,15.1797917 L84.6648326,24.6813636 L80.1925352,24.6813636 L80.1925352,0.86280303 L89.1702826,0.86280303 C93.8348656,0.86280303 96.6014572,4.17534091 96.6014572,8.15659091 C96.6014572,11.5001515 94.6388182,13.5752273 92.4192459,14.4111174 L97.5347053,24.6813636 L92.3545981,24.6813636 Z" id="Fill-5"></path>
                        <path d="M108.896297,24.8809432 C106.451286,24.8809432 104.392504,24.0123068 102.718294,22.2715871 C101.722055,21.2357727 101.110388,20.0310568 100.851797,18.6936326 C100.594864,17.3544848 100.467226,15.3810947 100.467226,12.7717386 C100.467226,10.1623826 100.594864,8.18899242 100.851797,6.85156818 C101.110388,5.47967424 101.722055,4.30770455 102.718294,3.27189015 C104.392504,1.53289394 106.451286,0.662534091 108.896297,0.662534091 C113.303946,0.662534091 116.55291,3.33910606 117.325367,8.18899242 L112.79008,8.18899242 C112.30605,6.14838636 111.084374,4.80923864 108.929449,4.80923864 C107.706115,4.80923864 106.739714,5.21253409 106.065057,6.04842424 C105.131809,7.08596212 104.937866,8.15624621 104.937866,12.7717386 C104.937866,17.3872311 105.131809,18.4575152 106.065057,19.495053 C106.739714,20.3309432 107.706115,20.7342386 108.929449,20.7342386 C111.084374,20.7342386 112.30605,19.3950909 112.79008,17.3544848 L117.325367,17.3544848 C116.55291,22.2043712 113.272451,24.8809432 108.896297,24.8809432" id="Fill-7"></path>
                        <polygon id="Fill-9" points="121.190307 24.6806742 121.190307 0.863837121 136.279752 0.863837121 136.279752 5.01054167 125.662605 5.01054167 125.662605 10.5980795 134.703342 10.5980795 134.703342 14.7447841 125.662605 14.7447841 125.662605 20.5322462 136.279752 20.5322462 136.279752 24.6806742"></polygon>
                        <path d="M149.314228,5.01123106 L145.132017,5.01123106 L145.132017,11.5346212 L149.314228,11.5346212 C151.341515,11.5346212 152.627839,10.2299432 152.627839,8.28929924 C152.627839,6.3486553 151.341515,5.01123106 149.314228,5.01123106 M149.539666,15.7157955 L145.132017,15.7157955 L145.132017,24.6813636 L140.659719,24.6813636 L140.659719,0.86280303 L149.539666,0.86280303 C154.268897,0.86280303 157.100137,4.24255682 157.100137,8.28929924 C157.100137,12.3360417 154.268897,15.7157955 149.539666,15.7157955" id="Fill-11"></path>
                        <polygon id="Fill-13" points="169.61942 5.01123106 169.61942 24.6813636 165.147122 24.6813636 165.147122 5.01123106 159.163062 5.01123106 159.163062 0.86280303 175.603479 0.86280303 175.603479 5.01123106"></polygon>
                        <polygon id="Fill-1" points="0 0.863147727 0 24.6817083 15.0894451 24.6817083 15.0894451 20.5332803 4.47229736 20.5332803 4.47229736 14.7458182 13.5130349 14.7458182 13.5130349 10.5973902 4.47229736 10.5973902 4.47229736 5.01157576 15.0894451 5.01157576 15.0894451 0.863147727"></polygon>
                        <polygon id="Fill-2" points="32.5317363 0.863147727 32.5317363 15.449 23.4578461 0.863147727 19.469578 0.863147727 19.469578 24.6817083 23.9418754 24.6817083 23.9418754 10.0631098 33.0141079 24.6817083 37.0040337 24.6817083 37.0040337 0.863147727"></polygon>
                        <polygon id="Fill-3" points="40.6430383 0.863147727 40.6430383 5.01157576 46.6287558 5.01157576 46.6287558 24.6817083 51.0993955 24.6817083 51.0993955 5.01157576 57.085113 5.01157576 57.085113 0.863147727"></polygon>
                        <polygon id="Fill-4" points="60.7236203 0.863147727 60.7236203 24.6817083 75.814723 24.6817083 75.814723 20.5332803 65.1959176 20.5332803 65.1959176 14.7458182 74.2366552 14.7458182 74.2366552 10.5973902 65.1959176 10.5973902 65.1959176 5.01157576 75.814723 5.01157576 75.814723 0.863147727"></polygon>
                    </g>
                </g>
            </g>
        </g>
    </g>
</svg>