<?xml version="1.0" encoding="UTF-8"?>
<svg width="221px" height="26px" viewBox="0 0 221 26" version="1.1" xmlns="http://www.w3.org/2000/svg" xmlns:xlink="http://www.w3.org/1999/xlink">
    <!-- Generator: Sketch 44.1 (41455) - http://www.bohemiancoding.com/sketch -->
    <title>Untitled</title>
    <desc>Created with Sketch.</desc>
    <defs>
        <linearGradient x1="0%" y1="0%" x2="101.257813%" y2="100%" id="linearGradient-1">
            <stop stop-color="#2C23AE" offset="0%"></stop>
            <stop stop-color="#53A0FE" offset="100%"></stop>
            <stop stop-color="#C900FF" offset="100%"></stop>
        </linearGradient>
    </defs>
    <g id="Page-1" stroke="none" stroke-width="1" fill="none" fill-rule="evenodd">
        <g id="logo-(1)" transform="translate(0.000000, 1.000000)" fill-rule="nonzero" fill="url(#linearGradient-1)">
            <polygon id="Page-1" points="0 24 24 24 24 0 0 0"></polygon>
        </g>
        <path d="M31.0054053,24.6437965 C30.9701099,24.8555689 31.1112915,24.9967505 31.3230639,24.9967505 L46.0412486,24.9967505 C46.253021,24.9967505 46.3942026,24.8555689 46.4294981,24.6437965 L47.1001108,21.043665 C47.1354062,20.8318925 47.02952,20.6907109 46.8177475,20.6907109 L36.8644428,20.6907109 C36.7232612,20.6907109 36.6526704,20.6201201 36.6879658,20.4789385 L37.6056463,15.2199228 C37.6409418,15.0787412 37.7115326,15.0081504 37.8527142,15.0081504 L46.1118394,15.0081504 C46.3236118,15.0081504 46.5000889,14.8669688 46.5353843,14.6551963 L47.1707016,11.1256556 C47.205997,10.9138832 47.1001108,10.7727016 46.8883383,10.7727016 L38.6292131,10.7727016 C38.4880315,10.7727016 38.4174407,10.7021108 38.4527361,10.5609291 L39.3351213,5.51368595 C39.3704167,5.37250433 39.4410075,5.30191351 39.5821891,5.30191351 L49.5354939,5.30191351 C49.7119709,5.30191351 49.8884479,5.16073188 49.9237433,4.94895944 L50.5590607,1.34882795 C50.5943561,1.13705551 50.4884698,0.995873879 50.2766974,0.995873879 L35.5232173,0.995873879 C35.3114449,0.995873879 35.1702633,1.13705551 35.1349679,1.34882795 L31.0054053,24.6437965 Z M51.2826164,24.6437965 C51.247321,24.8555689 51.3885026,24.9967505 51.6002751,24.9967505 L55.412179,24.9967505 C55.5886561,24.9967505 55.7298377,24.8555689 55.7651331,24.6437965 L58.4828794,9.21970367 L58.6593565,9.21970367 L64.1654399,24.6437965 C64.2713261,24.8908643 64.4478032,24.9967505 64.6595756,24.9967505 L68.7185474,24.9967505 C68.9303198,24.9967505 69.0715015,24.8555689 69.1067969,24.6437965 L73.2363595,1.34882795 C73.2716549,1.13705551 73.1304733,0.995873879 72.9187008,0.995873879 L69.1067969,0.995873879 C68.8950244,0.995873879 68.7538428,1.13705551 68.7185474,1.34882795 L65.9655057,16.7729207 L65.824324,16.7729207 L60.353536,1.34882795 C60.2829452,1.1017601 60.1064681,0.995873879 59.8241049,0.995873879 L55.8004285,0.995873879 C55.5886561,0.995873879 55.4474744,1.13705551 55.412179,1.34882795 L51.2826164,24.6437965 Z M84.0544016,24.9967505 L79.7836574,24.9967505 C79.6071803,24.9967505 79.4659987,24.8555689 79.5012941,24.6437965 L82.8543578,5.61957217 C82.8896532,5.47839055 82.8190624,5.40779973 82.6778807,5.40779973 L76.8188432,5.40779973 C76.6070708,5.40779973 76.4658891,5.26661811 76.5011845,5.05484566 L77.1717973,1.34882795 C77.2070927,1.13705551 77.3482743,0.995873879 77.5600467,0.995873879 L94.6783191,0.995873879 C94.8900915,0.995873879 95.0312731,1.13705551 94.9959777,1.34882795 L94.325365,5.05484566 C94.2900696,5.26661811 94.1488879,5.40779973 93.9371155,5.40779973 L88.0427826,5.40779973 C87.9016009,5.40779973 87.8310101,5.47839055 87.7957147,5.61957217 L84.4426511,24.6437965 C84.4073557,24.8555689 84.266174,24.9967505 84.0544016,24.9967505 Z M94.8371483,24.6437965 L98.9667109,1.34882795 C99.0020063,1.13705551 99.1431879,0.995873879 99.3549604,0.995873879 L114.10844,0.995873879 C114.320213,0.995873879 114.426099,1.13705551 114.390804,1.34882795 L113.755486,4.94895944 C113.720191,5.16073188 113.543714,5.30191351 113.367237,5.30191351 L103.413932,5.30191351 C103.272751,5.30191351 103.20216,5.37250433 103.166864,5.51368595 L102.284479,10.5609291 C102.249184,10.7021108 102.319775,10.7727016 102.460956,10.7727016 L110.720081,10.7727016 C110.931854,10.7727016 111.03774,10.9138832 111.002445,11.1256556 L110.367127,14.6551963 C110.331832,14.8669688 110.155355,15.0081504 109.943582,15.0081504 L101.684457,15.0081504 C101.543276,15.0081504 101.472685,15.0787412 101.437389,15.2199228 L100.519709,20.4789385 C100.484413,20.6201201 100.555004,20.6907109 100.696186,20.6907109 L110.649491,20.6907109 C110.861263,20.6907109 110.967149,20.8318925 110.931854,21.043665 L110.261241,24.6437965 C110.225946,24.8555689 110.084764,24.9967505 109.872992,24.9967505 L95.154807,24.9967505 C94.9430345,24.9967505 94.8018529,24.8555689 94.8371483,24.6437965 Z M132.409109,24.9967505 L128.208955,24.9967505 C127.926592,24.9967505 127.820706,24.8908643 127.750115,24.6437965 L125.314732,15.7493539 L121.855782,15.7493539 C121.714601,15.7493539 121.608714,15.8199447 121.608714,15.9611264 L120.055716,24.6437965 C120.020421,24.8555689 119.879239,24.9967505 119.702762,24.9967505 L115.432018,24.9967505 C115.220246,24.9967505 115.079064,24.8555689 115.114359,24.6437965 L119.243922,1.34882795 C119.279217,1.13705551 119.420399,0.995873879 119.632172,0.995873879 L128.738387,0.995873879 C133.009131,0.995873879 135.479809,3.39596154 135.479809,6.92550223 C135.479809,10.8432924 133.220903,13.8081066 129.93843,15.0787412 L132.691472,24.5732056 C132.797358,24.7849781 132.656177,24.9967505 132.409109,24.9967505 Z M126.655957,11.5139051 C128.738387,11.4786097 130.467861,10.1020888 130.467861,7.66670577 C130.467861,6.18429868 129.408999,5.30191351 127.750115,5.30191351 L123.691143,5.30191351 C123.549962,5.30191351 123.479371,5.37250433 123.444075,5.51368595 L122.420509,11.3021327 C122.385213,11.4433143 122.455804,11.5139051 122.596986,11.5139051 L126.655957,11.5139051 Z M138.250499,18.0435554 C138.250499,22.8437307 141.285904,25.385 145.697829,25.385 C149.545029,25.385 152.29807,23.8672975 154.486386,20.3024614 C154.592272,20.090689 154.556977,19.9142119 154.380499,19.8436211 L151.027436,18.0435554 C150.815663,17.9376692 150.639186,18.00826 150.498005,18.2200324 C149.580324,19.7730303 148.203803,20.9730741 146.439033,20.9730741 C144.391899,20.9730741 143.262446,19.6671441 143.262446,17.6200105 C143.262446,15.8552402 144.321309,9.57265774 145.168398,7.8431828 C145.980193,6.07841246 147.286123,5.01955026 149.192075,5.01955026 C151.133322,5.01955026 151.980412,6.18429868 152.368661,7.73729658 C152.439252,7.94906902 152.615729,8.05495525 152.827502,7.94906902 L156.568815,6.39607112 C156.780587,6.2901849 156.851178,6.14900328 156.815883,5.93723084 C156.039384,2.61946259 153.568705,0.607624403 149.756801,0.607624403 C145.556648,0.607624403 142.556538,2.33709934 140.650586,6.14900328 C139.379952,8.76086338 138.250499,15.8905356 138.250499,18.0435554 Z M158.174756,24.6437965 C158.13946,24.8555689 158.280642,24.9967505 158.492414,24.9967505 L173.210599,24.9967505 C173.422371,24.9967505 173.563553,24.8555689 173.598848,24.6437965 L174.269461,21.043665 C174.304757,20.8318925 174.19887,20.6907109 173.987098,20.6907109 L164.033793,20.6907109 C163.892612,20.6907109 163.822021,20.6201201 163.857316,20.4789385 L164.774997,15.2199228 C164.810292,15.0787412 164.880883,15.0081504 165.022065,15.0081504 L173.28119,15.0081504 C173.492962,15.0081504 173.669439,14.8669688 173.704735,14.6551963 L174.340052,11.1256556 C174.375347,10.9138832 174.269461,10.7727016 174.057689,10.7727016 L165.798564,10.7727016 C165.657382,10.7727016 165.586791,10.7021108 165.622086,10.5609291 L166.504472,5.51368595 C166.539767,5.37250433 166.610358,5.30191351 166.75154,5.30191351 L176.704844,5.30191351 C176.881321,5.30191351 177.057798,5.16073188 177.093094,4.94895944 L177.728411,1.34882795 C177.763706,1.13705551 177.65782,0.995873879 177.446048,0.995873879 L162.692568,0.995873879 C162.480795,0.995873879 162.339614,1.13705551 162.304318,1.34882795 L158.174756,24.6437965 Z M183.04037,24.9967505 L178.769625,24.9967505 C178.593148,24.9967505 178.451967,24.8555689 178.487262,24.6437965 L182.616825,1.34882795 C182.65212,1.13705551 182.793302,0.995873879 182.969779,0.995873879 L191.899517,0.995873879 C196.382033,0.995873879 198.782121,3.36066614 198.782121,7.06668385 C198.782121,13.066903 194.758445,16.3140804 189.252361,16.3140804 L185.122799,16.3140804 C184.981617,16.3140804 184.875731,16.3846713 184.875731,16.5258529 L183.428619,24.6437965 C183.393324,24.8555689 183.252142,24.9967505 183.04037,24.9967505 Z M189.675906,12.0080408 C192.040698,12.0080408 193.770173,10.4197475 193.770173,7.87847821 C193.770173,6.2901849 192.711311,5.30191351 190.87595,5.30191351 L187.064046,5.30191351 C186.922864,5.30191351 186.852274,5.37250433 186.816978,5.51368595 L185.687525,11.7962684 C185.687525,11.93745 185.722821,12.0080408 185.864002,12.0080408 L189.675906,12.0080408 Z M209.494277,24.9967505 C209.706049,24.9967505 209.847231,24.8555689 209.882527,24.6437965 L213.23559,5.61957217 C213.270886,5.47839055 213.341476,5.40779973 213.482658,5.40779973 L219.376991,5.40779973 C219.588763,5.40779973 219.729945,5.26661811 219.76524,5.05484566 L220.435853,1.34882795 C220.471149,1.13705551 220.329967,0.995873879 220.118195,0.995873879 L202.999922,0.995873879 C202.78815,0.995873879 202.646968,1.13705551 202.611673,1.34882795 L201.94106,5.05484566 C201.905765,5.26661811 202.046946,5.40779973 202.258719,5.40779973 L208.117756,5.40779973 C208.258938,5.40779973 208.329529,5.47839055 208.294233,5.61957217 L204.94117,24.6437965 C204.905874,24.8555689 205.047056,24.9967505 205.223533,24.9967505 L209.494277,24.9967505 Z" id="ENTERCEPT" fill="#FFFFFF"></path>
    </g>
</svg>