<?xml version="1.0" encoding="utf-8"?>
<!-- Generator: Adobe Illustrator 21.1.0, SVG Export Plug-In . SVG Version: 6.00 Build 0)  -->
<svg version="1.1" id="Layer_1" xmlns="http://www.w3.org/2000/svg" xmlns:xlink="http://www.w3.org/1999/xlink" x="0px" y="0px"
	 viewBox="0 0 87.7 8.3" style="enable-background:new 0 0 87.7 8.3;" xml:space="preserve">
<style type="text/css">
	.st0{clip-path:url(#SVGID_2_);}
	.st1{clip-path:url(#SVGID_4_);fill:#000FFF;}
</style>
<g>
	<defs>
		<path id="SVGID_1_" d="M81.6,1.5V0.2h6.1v1.3h-2.3v6.6h-1.6V1.5H81.6z M73.5,4.2h1.6c0.5,0,0.8-0.1,1.1-0.4c0.2-0.3,0.4-0.6,0.4-1
			c0-0.4-0.1-0.7-0.4-1c-0.2-0.2-0.6-0.4-1.1-0.4h-1.6V4.2z M71.9,8.1v-8h3.3c0.9,0,1.6,0.2,2.2,0.7c0.5,0.5,0.8,1.1,0.8,1.9
			c0,0.8-0.3,1.5-0.8,2c-0.5,0.5-1.3,0.8-2.1,0.8h-1.7v2.6H71.9z M62,8.1v-8h5.6v1.3h-4v1.9h3.6v1.3h-3.6v2h4v1.3H62z M50.9,4.7V3.6
			c0-0.5,0.1-1,0.2-1.4c0.1-0.4,0.3-0.8,0.6-1.1c0.3-0.3,0.6-0.6,1.1-0.8c0.4-0.2,1-0.3,1.6-0.3c0.5,0,0.9,0.1,1.4,0.2
			s0.8,0.4,1,0.6c0.3,0.3,0.5,0.6,0.7,0.9s0.3,0.7,0.3,1.2h-1.5c-0.1-0.5-0.2-0.9-0.5-1.2c-0.3-0.3-0.7-0.5-1.3-0.5
			c-0.6,0-1.1,0.2-1.4,0.6c-0.3,0.4-0.5,0.9-0.5,1.6v1.3c0,0.7,0.2,1.2,0.5,1.6C53.3,6.8,53.8,7,54.4,7c0.6,0,1-0.2,1.3-0.5
			c0.3-0.3,0.5-0.7,0.5-1.2h1.5c0,0.4-0.1,0.8-0.3,1.2c-0.2,0.4-0.4,0.7-0.7,1c-0.3,0.3-0.6,0.5-1,0.6s-0.9,0.2-1.4,0.2
			c-0.6,0-1.1-0.1-1.6-0.3c-0.4-0.2-0.8-0.4-1.1-0.8c-0.3-0.3-0.5-0.7-0.6-1.1S50.9,5.2,50.9,4.7z M42,4.3h1.8
			c0.5,0,0.8-0.1,1.1-0.4c0.3-0.3,0.4-0.6,0.4-1c0-0.4-0.1-0.8-0.4-1c-0.3-0.2-0.6-0.4-1.1-0.4H42V4.3z M40.4,8.1v-8H44
			c0.9,0,1.6,0.3,2.1,0.8c0.5,0.5,0.8,1.2,0.8,2c0,0.6-0.1,1.1-0.4,1.5c-0.3,0.4-0.7,0.8-1.2,1L47,8.1h-1.8l-1.5-2.5H42v2.5H40.4z
			 M30.5,8.1v-8h5.6v1.3h-4v1.9h3.6v1.3h-3.6v2h4v1.3H30.5z M20.4,1.5V0.2h6.1v1.3h-2.3v6.6h-1.6V1.5H20.4z M9.9,8.1v-8h1.5l3.5,5.3
			V0.2h1.6v8h-1.5l-3.5-5.3v5.3H9.9z M0,8.1v-8h5.6v1.3h-4v1.9h3.6v1.3H1.6v2h4v1.3H0z"/>
	</defs>
	<clipPath id="SVGID_2_">
		<use xlink:href="#SVGID_1_"  style="overflow:visible;"/>
	</clipPath>
	<g class="st0">
		<defs>
			<rect id="SVGID_3_" x="-137.9" y="-114.2" width="819" height="582.4"/>
		</defs>
		<clipPath id="SVGID_4_">
			<use xlink:href="#SVGID_3_"  style="overflow:visible;"/>
		</clipPath>
		<rect x="-2.8" y="-2.8" class="st1" width="93.3" height="14"/>
	</g>
</g>
</svg>
