<?xml version="1.0" encoding="utf-8"?>
<!-- Generator: Adobe Illustrator 21.1.0, SVG Export Plug-In . SVG Version: 6.00 Build 0)  -->
<svg version="1.1" id="Layer_1" xmlns="http://www.w3.org/2000/svg" xmlns:xlink="http://www.w3.org/1999/xlink" x="0px" y="0px"
	 viewBox="0 0 87.7 8.3" style="enable-background:new 0 0 87.7 8.3;" xml:space="preserve">
<style type="text/css">
	.st0{fill:#0000FF;}
</style>
<g>
	<path d="M11.5,8.2V0.1h5.9v1.7h-3.9v1.5H17v1.7h-3.5v1.6h3.9v1.7H11.5z"/>
	<path d="M26.8,8.2h-1.9l-3-4.7v4.7h-1.9V0.1h1.9l3,4.7V0.1h1.9V8.2z"/>
	<path d="M29,0.1h6.4v1.7h-2.2v6.4h-2V1.8H29V0.1z"/>
	<path d="M37.6,8.2V0.1h5.9v1.7h-3.9v1.5h3.5v1.7h-3.5v1.6h3.9v1.7H37.6z"/>
	<path d="M50.7,8.2l-1.4-2.4H48v2.4h-2V0.1h3.8c1,0,1.7,0.3,2.2,0.8s0.8,1.2,0.8,2.1c0,0.6-0.1,1.1-0.4,1.5c-0.3,0.4-0.6,0.8-1.1,1
		L53,8.2H50.7z M50.8,3c0-0.4-0.1-0.7-0.3-0.9c-0.2-0.2-0.5-0.3-0.9-0.3H48v2.5h1.6c0.4,0,0.7-0.1,0.9-0.3C50.7,3.7,50.8,3.4,50.8,3
		z"/>
	<path d="M57,4.8c0,0.6,0.1,1.1,0.4,1.4s0.7,0.5,1.3,0.5c0.5,0,0.9-0.1,1.2-0.4c0.3-0.3,0.4-0.6,0.4-1.1h1.8c0,0.9-0.3,1.6-0.9,2.2
		c-0.6,0.6-1.4,0.9-2.5,0.9c-1.2,0-2.1-0.3-2.7-1C55.4,6.7,55,5.8,55,4.7V3.6c0-1.1,0.3-2,0.9-2.7c0.6-0.7,1.5-1,2.7-1
		c1,0,1.9,0.3,2.5,0.9c0.6,0.6,0.9,1.4,0.9,2.2h-1.8c0-0.4-0.2-0.8-0.4-1.1c-0.3-0.3-0.7-0.4-1.2-0.4c-0.6,0-1,0.2-1.3,0.5
		S57,2.9,57,3.5V4.8z"/>
	<path d="M64.6,8.2V0.1h5.9v1.7h-3.9v1.5h3.5v1.7h-3.5v1.6h3.9v1.7H64.6z"/>
	<path d="M76.5,5.8H75v2.4h-2V0.1h3.5c1,0,1.7,0.3,2.3,0.8c0.6,0.5,0.9,1.2,0.9,2S79.3,4.4,78.8,5C78.2,5.5,77.4,5.8,76.5,5.8z
		 M77.3,3.8c0.2-0.2,0.3-0.5,0.3-0.9s-0.1-0.6-0.3-0.8c-0.2-0.2-0.5-0.3-1-0.3H75v2.3h1.4C76.8,4.1,77.1,4,77.3,3.8z"/>
	<path d="M81.3,0.1h6.4v1.7h-2.2v6.4h-2V1.8h-2.2V0.1z"/>
</g>
<g>
	<rect y="6.6" transform="matrix(-1 -1.224647e-16 1.224647e-16 -1 8.5309 14.8049)" class="st0" width="8.5" height="1.6"/>
	<rect x="3.2" y="3.4" transform="matrix(-1 -1.224647e-16 1.224647e-16 -1 11.6897 8.3)" class="st0" width="5.4" height="1.6"/>
	<rect x="1.1" y="0.1" transform="matrix(-1 -1.224647e-16 1.224647e-16 -1 9.6375 1.7952)" class="st0" width="7.4" height="1.6"/>
</g>
</svg>
