<?xml version="1.0" encoding="utf-8"?>
<!-- Generator: Adobe Illustrator 21.1.0, SVG Export Plug-In . SVG Version: 6.00 Build 0)  -->
<svg version="1.1" id="Layer_1" xmlns="http://www.w3.org/2000/svg" xmlns:xlink="http://www.w3.org/1999/xlink" x="0px" y="0px"
	 viewBox="0 0 154.1 14.6" style="enable-background:new 0 0 154.1 14.6;" xml:space="preserve">
<style type="text/css">
	.st0{clip-path:url(#SVGID_2_);}
	.st1{clip-path:url(#SVGID_4_);fill:#000FFF;}
</style>
<g>
	<defs>
		<path id="SVGID_1_" d="M143.4,2.6V0.3h10.7v2.3h-4v11.7h-2.8V2.6H143.4z M129.2,7.5h2.8c0.8,0,1.5-0.2,1.9-0.7
			c0.4-0.5,0.7-1.1,0.7-1.8c0-0.7-0.2-1.3-0.6-1.7c-0.4-0.4-1.1-0.7-1.9-0.7h-2.8V7.5z M126.4,14.3v-14h5.8c1.6,0,2.9,0.4,3.8,1.3
			c0.9,0.9,1.4,2,1.4,3.4c0,1.4-0.5,2.6-1.4,3.4c-1,0.9-2.2,1.3-3.8,1.3h-3v4.5H126.4z M109.1,14.3v-14h9.8v2.3h-7V6h6.4v2.3h-6.4
			V12h7v2.3H109.1z M89.5,8.3v-2c0-0.9,0.1-1.7,0.4-2.5c0.2-0.8,0.6-1.4,1.1-2c0.5-0.6,1.1-1,1.9-1.3C93.7,0.2,94.6,0,95.6,0
			c0.9,0,1.7,0.1,2.4,0.4c0.7,0.3,1.3,0.7,1.8,1.1c0.5,0.5,0.9,1,1.2,1.7s0.4,1.3,0.5,2h-2.6c-0.1-0.9-0.4-1.6-1-2.1
			c-0.5-0.6-1.3-0.8-2.3-0.8c-1.1,0-2,0.3-2.5,1C92.6,4,92.3,5,92.3,6.1v2.3c0,1.2,0.3,2.1,0.8,2.8c0.6,0.7,1.4,1,2.5,1
			c1,0,1.7-0.3,2.3-0.8s0.9-1.3,1-2.1h2.6c0,0.7-0.2,1.4-0.5,2c-0.3,0.6-0.7,1.2-1.2,1.7c-0.5,0.5-1.1,0.9-1.8,1.1
			c-0.7,0.3-1.5,0.4-2.4,0.4c-1,0-1.9-0.2-2.7-0.5c-0.8-0.3-1.4-0.8-1.9-1.3c-0.5-0.6-0.9-1.2-1.1-2S89.5,9.2,89.5,8.3z M73.8,7.5
			H77c0.8,0,1.5-0.2,1.9-0.7c0.4-0.5,0.7-1.1,0.7-1.8c0-0.8-0.2-1.4-0.7-1.8c-0.4-0.4-1.1-0.7-1.9-0.7h-3.2V7.5z M71,14.3v-14h6.3
			c1.6,0,2.8,0.4,3.7,1.3c0.9,0.9,1.3,2,1.3,3.4c0,1-0.2,1.9-0.7,2.6c-0.5,0.8-1.2,1.3-2,1.7l2.9,4.9h-3.2l-2.6-4.5h-2.9v4.5H71z
			 M53.7,14.3v-14h9.8v2.3h-7V6h6.4v2.3h-6.4V12h7v2.3H53.7z M35.9,2.6V0.3h10.7v2.3h-4v11.7h-2.8V2.6H35.9z M17.4,14.3v-14H20
			l6.1,9.3V0.3h2.7v14h-2.7L20.1,5v9.3H17.4z M0,14.3v-14h9.8v2.3h-7V6h6.4v2.3H2.8V12h7v2.3H0z"/>
	</defs>
	<clipPath id="SVGID_2_">
		<use xlink:href="#SVGID_1_"  style="overflow:visible;"/>
	</clipPath>
	<g class="st0">
		<defs>
			<rect id="SVGID_3_" x="-242.5" y="-200.7" width="1440" height="1024"/>
		</defs>
		<clipPath id="SVGID_4_">
			<use xlink:href="#SVGID_3_"  style="overflow:visible;"/>
		</clipPath>
		<rect x="-5" y="-5" class="st1" width="164.1" height="24.6"/>
	</g>
</g>
</svg>
