<?xml version="1.0" encoding="utf-8"?>
<!-- Generator: Adobe Illustrator 21.1.0, SVG Export Plug-In . SVG Version: 6.00 Build 0)  -->
<svg version="1.1" id="Layer_1" xmlns="http://www.w3.org/2000/svg" xmlns:xlink="http://www.w3.org/1999/xlink" x="0px" y="0px"
	 viewBox="0 0 786.5 148.8" style="enable-background:new 0 0 786.5 148.8;" xml:space="preserve">
<style type="text/css">
	.st0{fill:#FFFFFF;}
</style>
<g>
	<g>
		<path class="st0" d="M24.4,17c0.1-0.9,0.7-1.5,1.6-1.5h62.7c0.9,0,1.3,0.6,1.2,1.5l-2.7,15.7c-0.1,0.9-0.9,1.5-1.6,1.5H43.3
			c-0.6,0-0.9,0.3-1,0.9l-3.7,22c-0.1,0.6,0.1,0.9,0.7,0.9h35.1c0.9,0,1.3,0.6,1.2,1.5L72.8,75c-0.1,0.9-0.9,1.5-1.8,1.5H36
			c-0.6,0-0.9,0.3-1,0.9L31,100.3c-0.1,0.6,0.1,0.9,0.7,0.9H74c0.9,0,1.3,0.6,1.2,1.5l-2.8,15.7c-0.1,0.9-0.7,1.5-1.6,1.5H8.2
			c-0.9,0-1.5-0.6-1.3-1.5L24.4,17z"/>
		<path class="st0" d="M105.7,17c0.1-0.9,0.7-1.5,1.6-1.5h17.1c1.2,0,1.9,0.5,2.2,1.5l23.2,67.2h0.6L162.2,17
			c0.1-0.9,0.7-1.5,1.6-1.5H180c0.9,0,1.5,0.6,1.3,1.5l-17.5,101.4c-0.1,0.9-0.7,1.5-1.6,1.5H145c-0.9,0-1.6-0.5-2.1-1.5l-23.4-67.2
			h-0.7l-11.5,67.2c-0.1,0.9-0.8,1.5-1.5,1.5H89.5c-0.9,0-1.5-0.6-1.3-1.5L105.7,17z"/>
		<path class="st0" d="M204.3,120c-0.7,0-1.3-0.6-1.2-1.5l14.2-82.8c0.1-0.6-0.2-0.9-0.8-0.9h-24.9c-0.9,0-1.5-0.6-1.3-1.5l2.8-16.1
			c0.1-0.9,0.8-1.5,1.6-1.5h72.7c0.9,0,1.5,0.6,1.3,1.5l-2.8,16.1c-0.1,0.9-0.7,1.5-1.6,1.5h-25c-0.6,0-0.9,0.3-1,0.9l-14.2,82.8
			c-0.2,0.9-0.8,1.5-1.6,1.5H204.3z"/>
		<path class="st0" d="M280.9,17c0.2-0.9,0.8-1.5,1.6-1.5h62.7c0.9,0,1.3,0.6,1.2,1.5l-2.7,15.7c-0.2,0.9-0.9,1.5-1.6,1.5h-42.3
			c-0.6,0-0.9,0.3-1,0.9l-3.7,22c-0.2,0.6,0.1,0.9,0.8,0.9h35.1c0.9,0,1.3,0.6,1.2,1.5L329.4,75c-0.2,0.9-0.9,1.5-1.8,1.5h-35.1
			c-0.6,0-0.9,0.3-1,0.9l-3.9,22.9c-0.1,0.6,0.2,0.9,0.8,0.9h42.3c0.9,0,1.3,0.6,1.2,1.5l-2.8,15.7c-0.1,0.9-0.8,1.5-1.6,1.5h-62.5
			c-0.9,0-1.5-0.6-1.3-1.5L280.9,17z"/>
		<path class="st0" d="M400.3,120c-1.2,0-1.6-0.5-1.9-1.5L388,79.7h-14.7c-0.6,0-1,0.3-1,0.9l-6.6,37.8c-0.1,0.9-0.7,1.5-1.5,1.5
			H346c-0.9,0-1.5-0.6-1.3-1.5L362.2,17c0.2-0.9,0.8-1.5,1.6-1.5h38.7c18.1,0,28.6,10.5,28.6,25.8c0,17.1-9.6,30-23.5,35.5
			l11.7,41.3c0.5,0.9-0.1,1.8-1.2,1.8H400.3z M409.9,44.5c0-6.5-4.5-10.3-11.5-10.3h-17.2c-0.6,0-0.9,0.3-1,0.9l-4.3,25.2
			c-0.2,0.6,0.1,0.9,0.7,0.9h17.2C402.5,61.1,409.9,55.1,409.9,44.5z"/>
		<path class="st0" d="M448.3,37.9c8.1-16.6,20.8-24.1,38.7-24.1c16.2,0,26.7,8.8,30,23.2c0.1,0.9-0.2,1.5-1,2L500,45.8
			c-0.9,0.5-1.6,0-1.9-0.9c-1.6-6.8-5.2-11.8-13.5-11.8c-8.1,0-13.6,4.6-17.1,12.3c-3.6,7.5-8.1,34.9-8.1,42.6
			c0,8.9,4.8,14.6,13.5,14.6c7.5,0,13.3-5.2,17.2-12c0.6-0.9,1.3-1.2,2.2-0.8l14.2,7.8c0.8,0.3,0.9,1.1,0.4,2
			c-9.3,15.5-21,22.1-37.3,22.1c-18.7,0-31.6-11.1-31.6-32C438.1,80.3,442.9,49.3,448.3,37.9z"/>
		<path class="st0" d="M535.4,17c0.2-0.9,0.8-1.5,1.6-1.5h62.7c0.9,0,1.3,0.6,1.2,1.5l-2.7,15.7c-0.2,0.9-0.9,1.5-1.6,1.5h-42.3
			c-0.6,0-0.9,0.3-1,0.9l-3.7,22c-0.2,0.6,0.2,0.9,0.8,0.9h35.1c0.9,0,1.3,0.6,1.2,1.5L583.8,75c-0.2,0.9-0.9,1.5-1.8,1.5h-35.1
			c-0.6,0-0.9,0.3-1,0.9l-3.9,22.9c-0.1,0.6,0.2,0.9,0.8,0.9H585c0.9,0,1.3,0.6,1.2,1.5l-2.8,15.7c-0.2,0.9-0.8,1.5-1.6,1.5h-62.5
			c-0.9,0-1.5-0.6-1.3-1.5L535.4,17z"/>
		<path class="st0" d="M600.5,120c-0.8,0-1.3-0.6-1.2-1.5L616.8,17c0.1-0.9,0.7-1.5,1.5-1.5h37.9c19,0,29.2,10.3,29.2,26.4
			c0,26.1-17.1,40.3-40.5,40.3h-17.5c-0.6,0-1,0.3-1,0.9l-6.1,35.3c-0.2,0.9-0.8,1.5-1.6,1.5H600.5z M664.2,45.5
			c0-6.9-4.5-11.2-12.3-11.2h-16.2c-0.6,0-0.9,0.3-1,0.9l-4.8,27.4c0,0.6,0.1,0.9,0.7,0.9h16.2C656.8,63.4,664.2,56.5,664.2,45.5z"
			/>
		<path class="st0" d="M708,120c-0.7,0-1.3-0.6-1.2-1.5L721,35.6c0.1-0.6-0.2-0.9-0.8-0.9h-24.9c-0.9,0-1.5-0.6-1.3-1.5l2.8-16.1
			c0.2-0.9,0.8-1.5,1.6-1.5h72.7c0.9,0,1.5,0.6,1.3,1.5l-2.8,16.1c-0.1,0.9-0.7,1.5-1.6,1.5h-25c-0.6,0-0.9,0.3-1,0.9l-14.2,82.8
			c-0.1,0.9-0.7,1.5-1.6,1.5H708z"/>
	</g>
</g>
</svg>
