<?xml version="1.0" encoding="utf-8"?>
<!-- Generator: Adobe Illustrator 21.1.0, SVG Export Plug-In . SVG Version: 6.00 Build 0)  -->
<svg version="1.1" id="Layer_1" xmlns="http://www.w3.org/2000/svg" xmlns:xlink="http://www.w3.org/1999/xlink" x="0px" y="0px"
	 viewBox="0 0 94 12.8" style="enable-background:new 0 0 94 12.8;" xml:space="preserve">
<style type="text/css">
	.st0{fill:#0000FF;}
</style>
<g>
	<path d="M11.5,10.4V2.3h5.9V4h-3.9v1.5H17v1.7h-3.5v1.6h3.9v1.7H11.5z"/>
	<path d="M26.8,10.4h-1.9l-3-4.7v4.7h-1.9V2.3h1.9l3,4.7V2.3h1.9V10.4z"/>
	<path d="M29,2.3h6.4V4h-2.2v6.4h-2V4H29V2.3z"/>
	<path d="M37.6,10.4V2.3h5.9V4h-3.9v1.5h3.5v1.7h-3.5v1.6h3.9v1.7H37.6z"/>
	<path d="M50.7,10.4L49.3,8H48v2.4h-2V2.3h3.8c1,0,1.7,0.3,2.2,0.8s0.8,1.2,0.8,2.1c0,0.6-0.1,1.1-0.4,1.5c-0.3,0.4-0.6,0.8-1.1,1
		l1.7,2.7H50.7z M50.8,5.2c0-0.4-0.1-0.7-0.3-0.9C50.3,4,50,3.9,49.6,3.9H48v2.5h1.6c0.4,0,0.7-0.1,0.9-0.3
		C50.7,5.9,50.8,5.6,50.8,5.2z"/>
	<path d="M57,7c0,0.6,0.1,1.1,0.4,1.4c0.3,0.3,0.7,0.5,1.3,0.5c0.5,0,0.9-0.1,1.2-0.4c0.3-0.3,0.4-0.6,0.4-1.1h1.8
		c0,0.9-0.3,1.6-0.9,2.2c-0.6,0.6-1.4,0.9-2.5,0.9c-1.2,0-2.1-0.3-2.7-1C55.4,8.9,55,8,55,6.9V5.8c0-1.1,0.3-2,0.9-2.7
		c0.6-0.7,1.5-1,2.7-1c1,0,1.9,0.3,2.5,0.9c0.6,0.6,0.9,1.4,0.9,2.2h-1.8c0-0.4-0.2-0.8-0.4-1.1c-0.3-0.3-0.7-0.4-1.2-0.4
		c-0.6,0-1,0.2-1.3,0.5S57,5.2,57,5.8V7z"/>
	<path d="M64.6,10.4V2.3h5.9V4h-3.9v1.5h3.5v1.7h-3.5v1.6h3.9v1.7H64.6z"/>
	<path d="M76.5,8H75v2.4h-2V2.3h3.5c1,0,1.7,0.3,2.3,0.8c0.6,0.5,0.9,1.2,0.9,2s-0.3,1.5-0.9,2.1C78.2,7.7,77.4,8,76.5,8z M77.3,6
		c0.2-0.2,0.3-0.5,0.3-0.9s-0.1-0.6-0.3-0.8c-0.2-0.2-0.5-0.3-1-0.3H75v2.3h1.4C76.8,6.3,77.1,6.2,77.3,6z"/>
	<path d="M81.3,2.3h6.4V4h-2.2v6.4h-2V4h-2.2V2.3z"/>
</g>
<g>
	<rect y="8.8" transform="matrix(-1 -1.224647e-16 1.224647e-16 -1 8.5309 19.2564)" class="st0" width="8.5" height="1.6"/>
	
		<rect x="3.2" y="5.6" transform="matrix(-1 -1.224647e-16 1.224647e-16 -1 11.6897 12.7515)" class="st0" width="5.4" height="1.6"/>
	<rect x="1.1" y="2.3" transform="matrix(-1 -1.224647e-16 1.224647e-16 -1 9.6375 6.2466)" class="st0" width="7.4" height="1.6"/>
</g>
</svg>
